# xmcd CD database file
#
# Track frame offsets:
#	150
#	20635
#	42335
#	69962
#
# Disc length: 1203 seconds
#
# Revision: 0
# Processed by: cddbd v1.5PL3 Copyright (c) Steve Scherf et al.
# Submitted via: CDex 1.50beta9
#
DISCID=2d04b104
DTITLE=松橋 未樹 - いつまでも愛を包もう
DYEAR=1900
DGENRE=J ポップ
TTITLE0=いつまでも愛を包もう
TTITLE1=I'm in love with you
TTITLE2=いつまでも愛を包もう<Disco Mix> Remix by KCP
TTITLE3=いつまでも愛を包もう<instrumental>
EXTD=
EXTT0=
EXTT1=
EXTT2=
EXTT3=
PLAYORDER=
